<?xml version="1.0" ?><!DOCTYPE svg  PUBLIC '-//W3C//DTD SVG 1.1//EN'  'http://www.w3.org/Graphics/SVG/1.1/DTD/svg11.dtd'><svg height="2048px" style="shape-rendering:geometricPrecision; text-rendering:geometricPrecision; image-rendering:optimizeQuality; fill-rule:evenodd; clip-rule:evenodd" viewBox="0 0 2048 2048" width="2048px" xml:space="preserve" xmlns="http://www.w3.org/2000/svg" xmlns:xlink="http://www.w3.org/1999/xlink"><defs><style type="text/css">
   <![CDATA[
    .fil1 {fill:none}
    .fil0 {fill:#424242}
   ]]>
  </style></defs><g id="Layer_x0020_1"><path class="fil0" d="M1582.48 1627.13l120.816 -1353.38 1.58504 -17.752 -17.804 0 -1326.16 0 -17.8016 0 1.5815 17.752 120.689 1353.6 1.0063 11.2854 10.8721 3.01772 541.588 150.346 8.68465 0 543.064 -150.568 10.8697 -3.01418 1.00866 -11.289zm-557.369 -1071.68l395.75 0 -11.9126 138.491 -390.414 173.558 6.57638 31.226 366.391 0 -42.1748 483.261 -325.538 90.2587 -325.432 -90.1064 -20.6669 -231.443 134 0 10.7374 117.345 1.04173 11.374 11.0268 2.92914 186.463 49.539 8.49331 -0.0637796 184.316 -51.2315 10.9784 -3.05315 0.96378 -11.315 18.4276 -216.732 1.50354 -17.6882 -17.7874 0 -202.743 0 -358.429 0 -12.1984 -139.091 377.014 -161.362 26.7614 -11.4685 -6.38623 -31.3536 -26.7614 0 -387.811 0 -11.8099 -133.074 397.936 0 1.68425 0z"/></g><rect class="fil1" height="2048" width="2048"/></svg>